<?xml version="1.0" encoding="UTF-8" standalone="no"?>
<!DOCTYPE svg PUBLIC "-//W3C//DTD SVG 1.1//EN" "http://www.w3.org/Graphics/SVG/1.1/DTD/svg11.dtd">
<svg width="100%" height="100%" viewBox="0 0 1041 144" version="1.1" xmlns="http://www.w3.org/2000/svg" xmlns:xlink="http://www.w3.org/1999/xlink" xml:space="preserve" xmlns:serif="http://www.serif.com/" style="fill-rule:evenodd;clip-rule:evenodd;stroke-linejoin:round;stroke-miterlimit:1.41421;">
    <g id="Artboard1" transform="matrix(0.982437,0,0,0.969107,-56.6275,-339.82)">
        <rect x="57.64" y="350.652" width="1058.89" height="147.98" style="fill:none;"/>
        <g transform="matrix(1.01788,0,0,1.03188,-142.935,-42.9397)">
            <path d="M266.918,396.624C271.526,399.6 274.886,403.824 276.998,409.296C279.11,414.768 280.166,421.488 280.166,429.456L280.166,473.088C280.166,485.568 277.502,495.048 272.174,501.528C266.846,508.008 258.038,511.248 245.75,511.248C238.646,511.248 232.646,510.144 227.75,507.936L222.71,522.192L217.094,520.032L222.566,504.624C218.63,501.456 215.774,497.256 213.998,492.024C212.222,486.792 211.334,480.432 211.334,472.944L211.334,429.456C211.334,416.88 213.974,407.424 219.254,401.088C224.534,394.752 233.366,391.584 245.75,391.584C251.798,391.584 257.03,392.4 261.446,394.032L265.478,382.512L271.238,384.528L266.918,396.624ZM235.526,467.616L254.534,413.76C252.998,410.304 250.07,408.576 245.75,408.576C241.718,408.576 239.006,409.896 237.614,412.536C236.222,415.176 235.526,418.896 235.526,423.696L235.526,467.616ZM245.75,494.256C249.782,494.256 252.494,492.888 253.886,490.152C255.278,487.416 255.974,483.648 255.974,478.848L255.974,427.872L235.814,484.896C236.294,487.872 237.278,490.176 238.766,491.808C240.254,493.44 242.582,494.256 245.75,494.256Z" style="fill:rgb(51,51,51);fill-rule:nonzero;"/>
            <path d="M294.422,393.024L324.662,393.024C337.238,393.024 346.694,395.328 353.03,399.936C359.366,404.544 362.534,412.512 362.534,423.84C362.534,431.424 361.478,437.544 359.366,442.2C357.254,446.856 353.51,450.384 348.134,452.784L364.262,509.664L339.926,509.664L326.678,456.816L318.038,456.816L318.038,509.664L294.422,509.664L294.422,393.024ZM325.094,442.704C330.662,442.704 334.574,441.336 336.83,438.6C339.086,435.864 340.214,431.568 340.214,425.712C340.214,419.952 339.206,415.728 337.19,413.04C335.174,410.352 331.526,409.008 326.246,409.008L318.038,409.008L318.038,442.704L325.094,442.704Z" style="fill:rgb(51,51,51);fill-rule:nonzero;"/>
            <path d="M378.374,393.024L401.99,393.024L401.99,442.272L423.158,393.024L446.198,393.024L424.31,445.44L447.926,509.664L423.878,509.664L405.878,457.536L401.99,463.872L401.99,509.664L378.374,509.664L378.374,393.024Z" style="fill:rgb(51,51,51);fill-rule:nonzero;"/>
            <rect x="458.15" y="393.024" width="23.616" height="116.64" style="fill:rgb(51,51,51);fill-rule:nonzero;"/>
            <path d="M499.478,393.024L523.094,393.024L523.094,493.536L550.598,493.536L550.598,509.664L499.478,509.664L499.478,393.024Z" style="fill:rgb(51,51,51);fill-rule:nonzero;"/>
            <path d="M561.83,393.024L590.342,393.024C600.134,393.024 607.79,394.296 613.31,396.84C618.83,399.384 622.766,403.296 625.118,408.576C627.47,413.856 628.646,420.864 628.646,429.6L628.646,472.08C628.646,481.008 627.494,488.184 625.19,493.608C622.886,499.032 618.998,503.064 613.526,505.704C608.054,508.344 600.518,509.664 590.918,509.664L561.83,509.664L561.83,393.024ZM590.63,493.104C594.758,493.104 597.806,492.456 599.774,491.16C601.742,489.864 602.99,487.968 603.518,485.472C604.046,482.976 604.31,479.376 604.31,474.672L604.31,426.432C604.31,422.016 603.998,418.68 603.374,416.424C602.75,414.168 601.478,412.488 599.558,411.384C597.638,410.28 594.614,409.728 590.486,409.728L585.446,409.728L585.446,493.104L590.63,493.104Z" style="fill:rgb(51,51,51);fill-rule:nonzero;"/>
            <path d="M674.438,511.248C663.686,511.248 655.622,508.296 650.246,502.392C644.87,496.488 641.942,487.344 641.462,474.96L661.91,471.504C662.102,478.896 663.134,484.344 665.006,487.848C666.878,491.352 669.686,493.104 673.43,493.104C676.214,493.104 678.23,492.216 679.478,490.44C680.726,488.664 681.35,486.384 681.35,483.6C681.35,478.992 680.318,475.08 678.254,471.864C676.19,468.648 672.95,465.12 668.534,461.28L656.438,450.768C651.638,446.736 647.966,442.416 645.422,437.808C642.878,433.2 641.606,427.68 641.606,421.248C641.606,411.744 644.414,404.424 650.03,399.288C655.646,394.152 663.398,391.584 673.286,391.584C683.846,391.584 691.19,394.632 695.318,400.728C699.446,406.824 701.798,414.576 702.374,423.984L681.782,427.008C681.59,420.864 680.894,416.328 679.694,413.4C678.494,410.472 676.118,409.008 672.566,409.008C669.974,409.008 667.958,409.992 666.518,411.96C665.078,413.928 664.358,416.256 664.358,418.944C664.358,422.784 665.198,426.024 666.878,428.664C668.558,431.304 671.222,434.208 674.87,437.376L686.678,447.744C692.246,452.64 696.614,457.8 699.782,463.224C702.95,468.648 704.534,475.008 704.534,482.304C704.534,487.872 703.286,492.84 700.79,497.208C698.294,501.576 694.766,505.008 690.206,507.504C685.646,510 680.39,511.248 674.438,511.248Z" style="fill:rgb(51,51,51);fill-rule:nonzero;"/>
            <path d="M717.062,393.024L740.678,393.024L740.678,442.272L761.846,393.024L784.886,393.024L762.998,445.44L786.614,509.664L762.566,509.664L744.566,457.536L740.678,463.872L740.678,509.664L717.062,509.664L717.062,393.024Z" style="fill:rgb(51,51,51);fill-rule:nonzero;"/>
            <path d="M826.79,511.248C814.406,511.248 805.574,508.008 800.294,501.528C795.014,495.048 792.374,485.52 792.374,472.944L792.374,429.456C792.374,416.88 795.014,407.424 800.294,401.088C805.574,394.752 814.406,391.584 826.79,391.584C839.078,391.584 847.886,394.776 853.214,401.16C858.542,407.544 861.206,416.976 861.206,429.456L861.206,473.088C861.206,485.568 858.542,495.048 853.214,501.528C847.886,508.008 839.078,511.248 826.79,511.248ZM826.79,494.256C830.822,494.256 833.534,492.888 834.926,490.152C836.318,487.416 837.014,483.648 837.014,478.848L837.014,423.696C837.014,418.896 836.318,415.176 834.926,412.536C833.534,409.896 830.822,408.576 826.79,408.576C822.758,408.576 820.046,409.896 818.654,412.536C817.262,415.176 816.566,418.896 816.566,423.696L816.566,478.848C816.566,483.744 817.238,487.536 818.582,490.224C819.926,492.912 822.662,494.256 826.79,494.256Z" style="fill:rgb(51,51,51);fill-rule:nonzero;"/>
            <path d="M877.046,393.024L900.662,393.024L900.662,493.536L928.166,493.536L928.166,509.664L877.046,509.664L877.046,393.024Z" style="fill:rgb(51,51,51);fill-rule:nonzero;"/>
            <path d="M939.398,393.024L990.23,393.024L990.23,409.44L963.014,409.44L963.014,440.4L984.038,440.4L984.038,456.96L963.014,456.96L963.014,493.536L990.518,493.536L990.518,509.664L939.398,509.664L939.398,393.024Z" style="fill:rgb(51,51,51);fill-rule:nonzero;"/>
        </g>
        <g transform="matrix(8.95742e-17,1.48298,-1.46286,9.08063e-17,1654.62,-1001.65)">
            <path d="M919.891,510.755L958.539,451.313L961.481,446.801C966.19,439.477 969.688,433.362 971.977,428.458C974.266,423.553 975.41,418.224 975.41,412.469C975.41,407.368 974.429,403.477 972.467,400.796C970.506,398.115 967.628,396.775 963.835,396.775C958.473,396.775 954.746,398.867 952.653,403.052C950.561,407.238 949.514,412.992 949.514,420.316L949.514,427.575L919.891,427.575L919.891,419.728C919.891,404.818 923.39,393.014 930.387,384.317C937.384,375.62 948.337,371.271 963.247,371.271C976.98,371.271 987.443,374.901 994.636,382.159C1001.83,389.418 1005.43,399.717 1005.43,413.058C1005.43,421.166 1003.92,428.458 1000.91,434.932C997.905,441.406 993.197,449.416 986.789,458.964L984.631,462.299L954.026,508.205L1001.11,508.205L1001.11,532.139L919.891,532.139L919.891,510.755Z" style="fill:rgb(51,51,51);fill-rule:nonzero;"/>
        </g>
    </g>
</svg>
